<svg xmlns="http://www.w3.org/2000/svg" viewBox="0 0 512 512">
  <defs>
    <linearGradient id="cbg10" x1="0" y1="0" x2="512" y2="512">
      <stop offset="0%" stop-color="#1e1e2e"/>
      <stop offset="100%" stop-color="#181825"/>
    </linearGradient>
    <linearGradient id="note10" x1="240" y1="240" x2="270" y2="340">
      <stop offset="0%" stop-color="#89b4fa"/>
      <stop offset="50%" stop-color="#cba6f7"/>
      <stop offset="100%" stop-color="#f38ba8"/>
    </linearGradient>
  </defs>
  <rect width="512" height="512" rx="112" fill="url(#cbg10)"/>
  <g stroke="#6c7086" stroke-width="2.5" opacity="0.3">
    <line x1="80" y1="180" x2="432" y2="180"/>
    <line x1="80" y1="220" x2="432" y2="220"/>
    <line x1="80" y1="260" x2="432" y2="260"/>
    <line x1="80" y1="300" x2="432" y2="300"/>
    <line x1="80" y1="340" x2="432" y2="340"/>
  </g>
  <g>
    <ellipse cx="256" cy="260" rx="18" ry="14" fill="url(#note10)" transform="rotate(-15 256 260)"/>
    <path d="M 270 260 Q 275 290, 260 310 Q 250 325, 265 335"
          fill="none" stroke="url(#note10)" stroke-width="6" stroke-linecap="round"/>
    <ellipse cx="256" cy="260" rx="8" ry="6" fill="#fab387" transform="rotate(-15 256 260)" opacity="0.7"/>
  </g>
  <g fill="none" stroke="#89b4fa" stroke-width="3" opacity="0.25" stroke-linecap="round">
    <path d="M 120 200 L 110 200 L 110 320 L 120 320"/>
    <path d="M 392 200 L 402 200 L 402 320 L 392 320"/>
  </g>
</svg>
